<svg xmlns="http://www.w3.org/2000/svg"><path d="M137.621 162.622H20c-11.046 0-20 8.954-20 20v72.919c0 11.046 8.954 20 20 20h117.622l-.001-112.919zm636.572 794.193c11.046 0 20-8.954 20-20V819.193H681.274v117.621c0 11.046 8.954 20 20 20l72.919.001zm20-300.54V182.622c0-11.046-8.954-20-20-20H300.54v112.919h380.734v380.734h112.919z"/><path d="M936.814 681.275H275.54V20c0-11.046-8.954-20-20-20h-72.918c-11.046 0-20 8.954-20 20v754.194c0 11.046 8.954 20 20 20h754.193c11.045 0 20-8.954 20-20v-72.918c-.001-11.047-8.955-20.001-20.001-20.001z"/></svg>