<svg xmlns="http://www.w3.org/2000/svg"><path d="M374.742 329.056c-1.924-6.558-7.188-11.373-15.646-14.315-4.768-1.656-10.161-2.695-15.886-3.799-4.628-.893-9.412-1.813-13.292-3.007a37.708 37.708 0 0 1-1.319-.432 267.87 267.87 0 0 1 2.904-2.91c4.104-4.061 8.351-8.261 11.271-13.063 5.422-8.918 4.794-18.369-1.678-25.282 0 0-6.153-6.954-17.972-6.954-3.317 0-6.765.591-10.24 1.755.101-6.3.047-12.383-.16-18.081-1.074-29.662-5.979-48.147-15.434-58.178.023-22.692-9.021-56.099-24.194-89.363-23.063-50.561-53.47-87.257-72.3-87.257-1.771 0-3.423.345-4.919 1.026-.187.084-.365.177-.572.286l-9.3 4.248c-6.788-2.36-20.356-6.799-34.954-10.01C139.834 1.252 130.126 0 122.197 0c-13.492 0-22.308 3.459-26.953 10.575-2.41 3.692-4.77 9.95-2.322 18.786a37.43 37.43 0 0 0 2.034 5.511c9.438 20.69 52.658 54.961 100.531 79.715a5.004 5.004 0 0 0 3.413.433 13.126 13.126 0 0 1 2.944-.333c5.175 0 9.905 3.039 12.051 7.742a13.153 13.153 0 0 1 .357 10.136 13.162 13.162 0 0 1-6.914 7.419 13.156 13.156 0 0 1-5.491 1.198 13.287 13.287 0 0 1-12.062-7.755 13.15 13.15 0 0 1-.984-3.163 4.999 4.999 0 0 0-2.624-3.574c-38.121-19.751-73.136-44.636-93.667-66.568a5.002 5.002 0 0 0-5.726-1.132L6.557 95.586a5 5 0 0 0-2.882 5.2c1.469 11.192 8.085 51.709 31.55 103.146 23.463 51.438 49.724 82.994 57.214 91.44a4.992 4.992 0 0 0 5.816 1.231l167.184-76.265c.206 1.544.419 3.117.644 4.757 1.438 10.559 3.07 22.524 3.11 32.352.028 6.927-.744 10.773-1.398 12.783-1.97-.214-4.408-.619-6.771-1.016-4.793-.799-9.747-1.626-14.512-1.626-11.599 0-17.068 5.341-19.617 9.82-5.986 10.531-.033 23.457 5.82 33.543-3.291.916-7.79 1.701-10.776 2.221-4.479.781-9.108 1.589-13.123 2.859-7.511 2.379-12.396 6.464-14.525 12.144-1.672 4.458-2.248 11.52 4.49 19.839 8.809 10.871 21.499 19.078 37.722 24.396 13.405 4.396 29.27 6.719 45.876 6.719 16 0 32.021-2.082 46.328-6.021 10.648-2.933 25.358-8.347 34.965-17.488 4.034-3.836 14.745-14.029 11.07-26.564zm-123.067-11.905c1.16-2.648.595-5.929-1.736-10.03-5.625-9.902-7.554-16.623-5.734-19.977.393-.721 1.583-2.916 7.17-2.916 3.206 0 7.051.673 10.775 1.323 3.615.63 7.028 1.229 9.802 1.229 1.474 0 2.625-.168 3.521-.517a4.369 4.369 0 0 0 1.56-1.041c9.311-9.688 7.153-36.916 4.148-63.981-1.055-9.491-2-17.063-.998-18.579.234-.263.46-.376.701-.349 8.646 2.771 14.124 18.758 15.837 46.226.725 11.605.638 22.874.438 30.28-.046 1.746.86 3.366 2.34 4.175a4.192 4.192 0 0 0 4.606-.376c3.513-2.721 8.796-5.963 14.036-5.965 2.734 0 5.131.838 7.325 2.561l.002.002c3.938 4.407.54 9.42-8.058 18.331-5.881 6.097-8.544 9.329-8.771 12.373a4.757 4.757 0 0 0 .311 2.08c2.803 7.205 13.857 9.437 24.549 11.592 8.934 1.804 17.371 3.505 18.674 8.155.836 2.988-1.311 6.988-6.562 12.223-10.729 10.695-36.628 18.166-62.979 18.166-28.88 0-52.202-8.737-63.986-23.975-1.984-2.566-2.688-4.715-2.095-6.381 1.266-3.537 8.118-4.789 15.375-6.113 10.194-1.861 17.577-3.561 19.749-8.516zm-20.348-202.673c-9.344-20.483-16.378-41.472-19.809-59.101-1.194-6.131-1.938-11.761-2.206-16.734h.001c3.582 3.467 7.35 7.719 11.192 12.638 11.062 14.146 22.303 33.217 31.646 53.697s16.378 41.468 19.809 59.1c1.194 6.127 1.938 11.757 2.206 16.734-3.576-3.459-7.343-7.711-11.192-12.638-11.065-14.145-22.305-33.214-31.647-53.696zM107.806 18.772c.743-1.138 3.611-3.783 14.187-3.783 6.916 0 15.562 1.127 25.698 3.35 5.588 1.225 11.647 2.791 18.007 4.653l-46.042 21.002c-5.281-5.665-8.99-10.797-11.022-15.252a23.1 23.1 0 0 1-1.256-3.387c-.774-2.8-.636-4.954.428-6.583z"/></svg>