<svg xmlns="http://www.w3.org/2000/svg" width="557.212" height="557.211"><path d="M53.566 177.725h75.576c15.961 0 28.911-12.948 28.911-28.927 0-11.55 9.351-20.902 20.9-20.902h199.346c11.53 0 20.884 9.352 20.884 20.902 0 15.979 12.948 28.927 28.926 28.927h75.56c15.979 0 28.93-12.948 28.93-28.927V92.524c0-45.235-36.665-81.897-81.896-81.897h-344.17c-45.233 0-81.896 36.663-81.896 81.897v56.273c.002 15.979 12.95 28.928 28.929 28.928z"/><path d="M554.965 471.605l-36.754-129.198c-16.779-58.999-67.894-100.637-127.876-106.847v-34.3c0-21.753-17.632-39.389-39.386-39.389-21.773 0-39.403 17.636-39.403 39.389v33.05h-65.881v-33.033c0-21.752-17.63-39.386-39.384-39.386-21.756 0-39.388 17.634-39.388 39.386v34.284c-59.999 6.191-111.115 47.848-127.892 106.847L2.248 471.605a58.877 58.877 0 0 0 9.643 51.591 58.893 58.893 0 0 0 46.973 23.389h439.479a58.91 58.91 0 0 0 46.979-23.389 58.894 58.894 0 0 0 9.643-51.591zm-291.158.781a10.181 10.181 0 0 1-10.186 10.187H201.45c-5.628 0-10.188-4.558-10.188-10.187v-52.169c0-5.63 4.56-10.186 10.188-10.186h52.171a10.18 10.18 0 0 1 10.186 10.186v52.169zm0-102.197a10.181 10.181 0 0 1-10.186 10.187H201.47a10.184 10.184 0 0 1-10.188-10.187v-52.15c0-5.63 4.557-10.188 10.188-10.188h52.151c5.63 0 10.186 4.559 10.186 10.188v52.15zm102.161 102.179a10.182 10.182 0 0 1-10.187 10.186h-52.154a10.182 10.182 0 0 1-10.186-10.186v-52.134a10.183 10.183 0 0 1 10.186-10.188h52.154a10.184 10.184 0 0 1 10.187 10.188v52.134zm0-102.179a10.183 10.183 0 0 1-10.187 10.187h-52.135a10.183 10.183 0 0 1-10.188-10.187v-52.135c0-5.63 4.557-10.188 10.188-10.188h52.135a10.184 10.184 0 0 1 10.187 10.188v52.135z"/></svg>